<svg width="32" height="32" viewBox="0 0 32 32" fill="none" xmlns="http://www.w3.org/2000/svg">
<path fill-rule="evenodd" clip-rule="evenodd" d="M16.5 29.5C17.7806 29.5 19.018 29.3148 20.1868 28.9698C19.7242 28.0746 19.463 27.0586 19.463 25.9815C19.463 22.3814 22.3814 19.463 25.9815 19.463C27.0586 19.463 28.0746 19.7242 28.9698 20.1868C29.3148 19.018 29.5 17.7806 29.5 16.5C29.5 9.3203 23.6797 3.5 16.5 3.5C9.3203 3.5 3.5 9.3203 3.5 16.5C3.5 23.6797 9.3203 29.5 16.5 29.5ZM31.3963 22.3512C32.1088 20.5389 32.5 18.5651 32.5 16.5C32.5 7.66344 25.3366 0.5 16.5 0.5C7.66344 0.5 0.5 7.66344 0.5 16.5C0.5 25.3366 7.66344 32.5 16.5 32.5C18.5651 32.5 20.5389 32.1088 22.3512 31.3963C23.3887 32.0933 24.6376 32.5 25.9815 32.5C29.5816 32.5 32.5 29.5816 32.5 25.9815C32.5 24.6376 32.0933 23.3887 31.3963 22.3512ZM29.5 25.9815C29.5 27.9247 27.9247 29.5 25.9815 29.5C24.0383 29.5 22.463 27.9247 22.463 25.9815C22.463 24.0383 24.0383 22.463 25.9815 22.463C27.9247 22.463 29.5 24.0383 29.5 25.9815Z" fill="black"/>
</svg>
