<?xml version="1.0" encoding="UTF-8"?> <svg xmlns="http://www.w3.org/2000/svg" id="Layer_2" viewBox="0 0 383.3 468.8"><defs><style> .cls-1 { fill: #fff; } .cls-2 { fill: #e53935; } .cls-3 { fill: #fb8c00; } .cls-4 { stroke-linejoin: bevel; } .cls-4, .cls-5 { fill: none; stroke: #fff; stroke-linecap: round; stroke-width: .85px; } .cls-6 { fill: #fbc02d; } .cls-7 { fill: #1976d2; } .cls-8 { fill: #43a047; } .cls-5 { stroke-linejoin: round; } </style></defs><g id="Layer_2_copy"><path d="M371.86,201.3H95.45l152.87-63.84,21.6,51.71c2.43,5.83,9.13,8.58,14.96,6.15l34.42-14.38c5.83-2.43,8.58-9.13,6.15-14.96l-21.6-51.71,51.7-21.59c5.83-2.43,8.58-9.13,6.15-14.96l-14.38-34.42c-2.43-5.83-9.13-8.58-14.96-6.15l-51.7,21.59-21.59-51.71c-2.44-5.83-9.13-8.58-14.96-6.15l-34.42,14.38c-5.83,2.43-8.58,9.13-6.15,14.96l21.59,51.71L7.03,173.01c-5.82,2.43-8.58,9.13-6.14,14.96l6.98,16.72v45.35c0,6.31,5.12,11.43,11.43,11.43h-1.33v172.59c0,19.19,15.56,34.74,34.75,34.74h285.72c19.19,0,34.75-15.55,34.75-34.74v-172.59h-1.33c6.31,0,11.44-5.12,11.44-11.43v-37.3c0-6.32-5.13-11.44-11.44-11.44ZM300.07,125.92l15,35.94-52.24-10.03-7.27-17.39,27.98-11.69,16.53,3.17ZM228.79,70.33l-15-35.93,52.24,10.02,7.27,17.4-27.99,11.68-16.52-3.17Z"></path><polygon points="273.3 61.82 245.31 73.5 228.79 70.33 213.79 34.4 266.03 44.42 273.3 61.82"></polygon><polygon points="315.07 161.86 262.83 151.83 255.56 134.44 283.54 122.75 300.07 125.92 315.07 161.86"></polygon><polygon class="cls-1" points="315.07 161.86 262.83 151.83 255.56 134.44 283.54 122.75 300.07 125.92 315.07 161.86"></polygon><polygon class="cls-1" points="273.3 61.82 245.31 73.5 228.79 70.33 213.79 34.4 266.03 44.42 273.3 61.82"></polygon><circle class="cls-1" cx="32.66" cy="232.76" r="7.16"></circle><circle class="cls-1" cx="32.66" cy="196.88" r="7.16"></circle><polygon class="cls-1" points="343.81 253.56 304.87 253.56 334.25 209.22 373.19 209.22 343.81 253.56"></polygon><polygon class="cls-1" points="255.48 253.56 216.55 253.56 245.93 209.22 284.87 209.22 255.48 253.56"></polygon><polygon class="cls-1" points="167.16 253.56 128.23 253.56 157.61 209.22 196.55 209.22 167.16 253.56"></polygon><polygon class="cls-1" points="74.23 201.3 110.16 186.3 65.96 156.7 30.03 171.71 74.23 201.3"></polygon><polygon class="cls-1" points="155.73 167.27 191.66 152.27 147.46 122.67 111.53 137.67 155.73 167.27"></polygon><polygon class="cls-1" points="237.23 133.24 273.16 118.23 228.96 88.64 193.03 103.64 237.23 133.24"></polygon><polygon class="cls-1" points="318.73 99.2 354.66 84.2 310.46 54.6 274.53 69.61 318.73 99.2"></polygon><g id="Layer_3_copy"><path id="T_B" class="cls-2" d="M45.8,367.36l.92-36.35.89-3.46-.55-1.96,2.42-2.35-.56-9.63-.88-3.79-4.07-4.49-6.8-4.07-7.3-.1c-.99-.01-2.43-.24-2.55-1.22l.11-.98c-.07-.55.7-.61,1.17-.89l2.88-1.74,7.24-1.58,7.37-.52,3.17-.14.96.14.95-2.27,6.62.52,4.11.57,3.37-.32.31,1.5,1.1.72,9.15-1.75,9.71.58,4.9,1.97,1.63,1.79-.73,1.71-6.16.65-4.26.98-3.18,3-6.18,7.41-1.62,5.44,1.13,4.51,1.28,3.59,2.42,7.36,1.86,7.83,2.28,10.6,1.79,9.15.44,4.38.7,1.93-10.25,1.99-25.8-.71Z"></path><polygon id="A_B" class="cls-3" points="106.64 361.7 110.06 364.16 113.73 364.74 115.52 364.74 119.68 363.22 122.78 359.81 124.6 354.96 126.77 348.59 131.47 338.51 133.54 336.05 135.51 333.07 136.3 331.18 138.23 331.18 140.95 331.18 142.64 332.76 144.36 333.83 146.93 331.98 149.13 331.7 148.42 332.57 149.92 335.65 156.51 348.59 159.11 354.52 160.21 359.07 162.87 362.38 167.27 364.33 172.24 364.53 175.24 363.05 177.15 358.64 177.5 352.77 173.47 334.48 170.99 323.69 166.51 311.71 158.78 299.86 153.22 295.92 147.43 295.92 143.87 299.21 142.36 302.12 141.9 306.96 142.38 312.91 143.76 317.58 144.82 321.71 146.52 326.08 146.52 327.35 143.87 327.6 142.69 329.03 141.18 329.48 139.2 327.35 137.25 326.98 137.44 324.51 139.72 312.55 140.17 306.1 138.51 299.87 134.71 295.92 129.15 294.95 124.6 297.51 119.19 304.39 114.8 312.91 110.43 323.34 106.29 337.79 104.39 347.83 104.54 357.5 106.64 361.7"></polygon><polygon id="K_B" class="cls-6" points="193.84 363.58 195.81 364.16 196.89 364.16 199.14 364.74 200.26 364.14 201.43 361.84 203.95 361.97 208.23 361.53 209.34 360.13 205.27 345.15 203.45 340.59 203.66 337.13 204.84 334.14 207.94 336.81 210.08 339.47 214.7 344.46 218.52 349.12 226.29 360.3 229.53 363.77 230.89 363.58 233.35 359.55 234.91 358.18 235.6 356.84 229.92 349.44 227.29 344.62 224.4 340.59 222.65 336.33 219.34 333.69 214.37 330.84 211.77 328.04 217.98 325.51 223.35 320.86 227.12 314.95 228.82 310.39 231.37 306.1 233.8 304.39 234.39 302.5 233.52 300.88 232.33 299.89 227.87 297.67 226.41 299.89 223.35 303.64 219.28 307.46 217.65 310.39 217.67 312.49 217.71 315.1 217.1 316.24 214.37 316.1 212.07 315.1 210.96 314.45 210.18 311.81 211.31 302.87 211.31 298.66 209.34 295.93 206.84 295.49 204.29 296.71 198.37 298.66 196.86 299.42 194.67 300.88 193.84 306.39 194.54 312.91 193.71 319.61 191.83 326.36 190.1 334.48 189.4 340.53 189.75 345.24 190.39 350.41 192.13 356.42 193.84 363.58"></polygon><path id="E_B" class="cls-8" d="M258.31,361.86l5,3.47,8.86,3.38,10.22.62,4.08-.8.59-4.96v-1.37l.63-1.01,2.7-1.6.97-4.55-.53-5.21-1.19-.83-12.6,3.33-4.18,1.02-3.76-.26-1.16-1.48-.34-6.38,1.36-.04,15.57-1.37,3.52-.73.65-1.21-.32-10.36-.17-1.48-15.35-.23-2.64-.62-.35-2.84-1.59-3.81.85-2.01,1.53-3.86,13.5.45h13.29l.93-12.26-4.76-.92-10.7-.79-5.53-.79-3.67-.45h-.88l.45-2.51-2.19-3.94-2.38-2.96-3.41-.91-2.61-.38h-1.02s-1.9,3.55-1.93,3.64-1.93,2.83-1.93,2.83l-2.5,1.97-1.87.62-1.76,1.65-1.7,1.24-1.25.43.51,3.1-.96,2.04v3.84l-.84,9.97.51,10.52,1.13,12.07.9,6.17,3.63,6.1,4.66,4.45Z"></path><polygon id="_x37__B" class="cls-7" points="318.35 360.21 323.98 364.03 330.15 368.1 331.74 368.8 334.25 366.3 344.12 352.1 351.28 341.88 358.55 327.44 363.22 317.03 362.86 315.1 353.91 308.14 352.86 306.1 354.66 303.97 356.47 300.75 354.03 296.93 352.19 296.33 351.44 294.01 344.89 292.77 320.19 291.37 311.77 291.44 310.72 293.76 310.24 303.3 310.24 304.88 315.16 305.57 326.06 306.26 332.58 307.46 342.26 310.75 347.57 313.4 341.26 321.34 334.46 330.62 327.14 343.03 323.75 349.83 323.08 352.1 321.61 352.44 319.39 356.42 318.2 359.09 318.35 360.21"></polygon><g id="_x37_"><g><path class="cls-5" d="M351.04,309.42c-3.14,3.51-6.16,7.11-9,10.88-5.72,7.57-10.71,15.6-15.5,23.76-1.18,2.01-2.18,4.13-3,6.34-.2.54-.32,1.26-1.23,1.29-.48.01-.62.6-.79,1-.59,1.43-1.47,2.68-2.28,3.97-.25.4-.49.82-.68,1.25-.66,1.47-.54,2.25.8,3.16,2.22,1.51,4.5,2.94,6.81,4.32,1.55.93,3,1.97,4.42,3.08,1.03.81,1.46.81,2.26-.24,1.4-1.83,2.68-3.75,3.75-5.79.36-.69.82-1.3,1.26-1.92,4.53-6.33,9.53-12.32,13.62-18.96,1.66-2.69,3.01-5.54,4.11-8.51.48-1.29,1.34-2.39,1.95-3.62,1.71-3.46,3.64-6.81,4.98-10.46.34-.93.44-1.9.66-2.85.12-.54-.2-.92-.56-1.25-1.45-1.31-3.07-2.39-4.66-3.52-.97-.7-1.96-1.38-2.93-2.08-1.57-1.13-2.18-2.89-2.52-4.74-.4-2.15-.2-4.31-.2-6.47,0-.92-.11-1.83-.27-2.72-.19-1.09-.66-1.72-2.01-2.01-2.72-.6-5.45-.81-8.19-.91-5.41-.21-10.83-.18-16.24-.41-1.97-.08-3.95-.3-5.91-.6-1.67-.25-3.4-.18-5.1-.12-.56.02-1.14.07-1.7.07-1.79.02-2.06.25-2.15,2.05-.03.64-.03,1.29,0,1.93.1,2.7-.23,5.38-.48,8.06-.1,1.04.47,1.43,1.27,1.58,2.07.36,4.15.7,6.24.96,2.65.32,5.3.3,7.95.45,4.57.27,8.96,1.41,13.18,3.24,2.82,1.22,5.62,2.46,8.4,3.76"></path><path class="cls-5" d="M331.28,357.55c.73.33,1.36.85,2.06,1.22.71.38.73.87.42,1.38-1.02,1.73-2.08,3.43-3.18,5.11-.34.52-.82.47-1.36.13-1.91-1.2-3.85-2.36-5.79-3.53-1.25-.76-2.5-1.51-3.75-2.27"></path><path class="cls-5" d="M349.45,341.88c-.72.68-1.49,1.32-2.15,2.05-2.36,2.64-5.27,4.6-8.08,6.68-2.71,2.01-5.13,4.27-6.92,7.16"></path><path class="cls-5" d="M360.35,318.73c-.82,2.87-2.11,5.58-3.06,8.4-.45,1.35-1.02,2.67-1.28,4.08-.05.25,0,.46.02.68"></path><path class="cls-5" d="M330.15,303.97c-3.15-.61-6.39-.59-9.54-1.25-.46-.1-.91-.22-1.36-.34"></path><path class="cls-5" d="M350.36,297.16c.11,2.42-.23,4.84-.03,7.27.09,1.15.15,2.29.49,3.4"></path><path class="cls-5" d="M317.2,296.93v6.72c-1.44-.13-2.77-.24-4.09-.36"></path><path class="cls-5" d="M353.54,305.78c1.37-1.16,1.88-2.88,2.81-4.33.17-.27.12-.78,0-1.11-.49-1.4-1.3-2.6-2.48-3.53-.32-.25-.67-.22-1.03-.22"></path><path class="cls-5" d="M328.9,363c.72.03,1.07-.44,1.23-1.03.11-.42-.02-.97-.45-1.1-.47-.14-1.07-.16-1.46.31-.29.35-.5.81-.32,1.23.14.33.5.57.88.69"></path><path class="cls-5" d="M312.89,298.86c.15.11.33.2.45.35.36.44.62.96,0,1.34-.47.29-.98.36-1.37-.31-.46-.79-.02-.97.58-1.15.09-.03.15-.14.23-.22"></path><path class="cls-5" d="M331.74,352.56c-.73,1.08-1.66,2.01-2.27,3.18"></path><path class="cls-5" d="M325.15,355.96c.98.61,1.97,1.21,2.95,1.82"></path><path class="cls-5" d="M338.32,356.87c-.81,1-1.72,1.91-2.73,2.72"></path><path class="cls-5" d="M336.51,362.2c-.36-.18-.72-.35-1.14-.34"></path></g></g><g id="E"><g><path class="cls-5" d="M268.98,322.03c.86-2.43,1.51-4.9,1.73-7.49.13-1.44.32-2.89.62-4.32.19-.88.1-1.81.23-2.72.32-2.27.35-4.55,1.35-6.71.58-1.24,0-2.59-.66-3.71-.77-1.32-1.8-2.48-2.5-3.86-.21-.41-.66-.6-1.21-.74-1.49-.38-3-.71-4.45-1.29-1.56-.63-2.73-.03-3.39,1.57-.56,1.35-1.14,2.68-1.8,3.98-.86,1.72-2.15,2.75-4,3.04-1.5.24-2.56.93-3.07,2.4-.26.74-.84.95-1.58,1.04-1.58.2-2.02.3-1.33,2.01.46,1.14.54,2.12-.03,3.2-.54,1.03-.18,2.19-.42,3.3-1.04,4.67-1.07,9.43-.93,14.18.09,2.92.28,5.84.61,8.75.2,1.73.39,3.47.53,5.21.28,3.49.45,7.02,1.19,10.43.7,3.27,2.76,6,4.93,8.52,2.32,2.68,5.03,4.93,8.17,6.58,3.07,1.62,6.31,2.79,9.75,3.45,3.44.66,6.89.54,10.34.38,1.12-.05,2.31-.09,3.54-.57-.19-1.29.4-2.58.2-3.92-.14-.97.54-1.88.13-2.84"></path><path class="cls-5" d="M270.23,329.52c1.57.38,3.18.39,4.77.42,4.28.09,8.55.03,12.83.04.15,0,.34-.08.53.24-.01,1.13.28,2.35.29,3.62.02,2.69.28,5.37.23,8.06-.02.95-.4,1.25-1.26,1.5-3.24.95-6.59.78-9.89,1.13-2.27.24-4.52.65-6.81.71-.92.02-1.82-.06-2.73-.05"></path><path class="cls-5" d="M272.5,301.93c1.67.19,3.34.34,5,.58,1.48.21,2.97.3,4.44.62.75.16,1.58.28,2.37.27,2.51-.03,5,.26,7.49.49,1.93.18,3.85.55,5.79.64.65.03.79.35.81.92.04,1.11-.19,2.2-.29,3.29-.19,2.08-.42,4.15-.41,6.25,0,.76.08,1.54-.26,2.23-1.29.44-2.62.04-3.94.04-3.41,0-6.81-.04-10.22.01-2.58.04-5.17.07-7.72-.28-1.64-.22-3.26-.11-4.89-.19"></path><path class="cls-5" d="M265.12,316.24c-2.05-1.02-4.04-2.13-5.21-4.21-.57-1-.88-2.11-.8-3.28.08-1.22-.09-2.43-.25-3.63-.12-.9-.6-1.59-1.45-2.06-.94-.52-1.88-.99-2.96-1.12"></path><path class="cls-5" d="M274.09,368.8c-.09-1.81.95-2.83,2.5-3.4,3.36-1.23,6.68-2.57,10.1-3.65.81-.26,1.61-.55,2.38-.91,1.47-.69,1.72-2.12,2.06-3.51.54-2.2.55-4.38,0-6.59-.36-1.49-.79-1.8-2.29-1.48-4.24.92-8.31,2.4-12.49,3.52-1.74.46-3.51.8-5.33.82-.76,0-1.42-.35-2.29-.37-.57-2.67-1.51-5.33-.63-8.25-1.62-.27-3.25-.42-4.8-.93"></path><path class="cls-5" d="M270.91,329.86c-.36,1.39.17,2.72.24,4.09.12,2.65.6,5.29.2,7.94-.14.92-.03,1.82-.1,2.73"></path><path class="cls-5" d="M274.89,330.2v14.64"></path><path class="cls-5" d="M278.41,302.73c-.04.11-.11.23-.11.34.16,2.39-.13,4.78-.3,7.15-.16,2.27.02,4.55-.28,6.82"></path><path class="cls-5" d="M274.89,302.5c-.24,1.47-.37,2.94-.48,4.43-.18,2.5-.37,4.99-.48,7.49-.03.74-.17,1.51-.18,2.27"></path><path class="cls-5" d="M271.93,354.15c.45,2.32.38,4.7.67,7.04.1.79.24,1.57.27,2.38.06,1.88-.48,3.45-1.95,4.66"></path><path class="cls-5" d="M281.93,330.2c-.16,4.62.36,9.23.23,13.85"></path><path class="cls-5" d="M285.79,303.64c.13,2.77-.2,5.53-.3,8.28-.06,1.74-.08,3.48-.16,5.22"></path><path class="cls-5" d="M282.04,303.3c-.04.08-.11.15-.11.23,0,4.39-.4,8.77-.23,13.17"></path><path class="cls-5" d="M268.07,297.85c-2.03.94-2.73,2.91-3.23,4.78-.6,2.27-.46,4.64-.37,7.02.15,4.06,1.64,7.57,3.51,11,.89,1.62,1.51,3.34,2.22,5.02.64,1.53.21,3.11-.3,4.64-.51,1.55-1.23,3.02-1.8,4.55-1.17,3.08-3,5.75-4.9,8.39"></path><path class="cls-5" d="M289.65,303.86c-.52,4.41-.94,8.83-.91,13.28"></path><path class="cls-5" d="M285.79,330.2c.46,4.28.2,8.55,0,12.83"></path><path class="cls-5" d="M278.63,352.34c.26,2.08.46,4.17.82,6.24.31,1.81.37,3.64.55,5.45"></path><path class="cls-5" d="M296.01,305.11c-.16,3.86-.58,7.71-.57,11.58"></path><path class="cls-5" d="M281.81,351.32c.23,2.01.58,4.01.85,6.01.25,1.86-.05,3.73.29,5.57"></path><path class="cls-5" d="M261.03,341.67c-1.26.06-2.31.72-3.27,1.4-1.08.76-2.1,1.07-3.44.91-1.53-.17-3.1-.04-4.65-.04"></path><path class="cls-5" d="M275.57,353.93c.46.94.31,1.99.39,2.96.25,2.75.5,5.51.17,8.28"></path><path class="cls-5" d="M248.88,310.11c2.15-.17,4.11.42,6.03,1.34,1.12.53,2.18.94,2.65,2.28.2.56.93.93,1.43,1.38"></path><path class="cls-5" d="M278.52,330.2c-.18,3.44-.29,6.88-.23,10.33"></path><path class="cls-5" d="M269.89,296.48c-.82.1-1.5-.15-2.05-.79-1.5-1.76-3.31-2.36-5.57-1.62-.59.2-1.28.1-1.92.14"></path><path class="cls-5" d="M266.26,321.46c-2.82.19-5.1,1.38-6.81,3.64-.58.76-1.11,1.55-1.76,2.46.31.26.58.49.85.71"></path><path class="cls-5" d="M258.19,337.69c-3.08-.93-6.12-2.05-9.43-1.7"></path><path class="cls-5" d="M292.83,307.84c-.29,3.1-.22,6.2-.23,9.31"></path><path class="cls-5" d="M266.48,330.54c-.82,2.05-1.64,4.09-2.17,6.24-.56,2.25-1.11,4.48-1.3,6.81-.1,1.24-.53,2.47-.51,3.75.06,3.23.58,6.37,1.68,9.43.69,1.94.9,2.44-1.11,3.97"></path><path class="cls-5" d="M248.09,331.79c2.63.21,5.22.59,7.73,1.46,1.26.44,2.29-.41,3.4-.8.16-.06.31-.07.46-.1"></path><path class="cls-5" d="M267.85,336.33c.5,2.3.5,4.61.12,6.93-.09.52.13,1.07-.12,1.59"></path><path class="cls-5" d="M257.85,340.19c-1.19.38-2.35-.05-3.52-.15-1.64-.14-3.26.05-4.89.03"></path><path class="cls-5" d="M258.31,346.66c-.75.89-1.62,1.19-2.84,1.07-1.53-.16-3.1.05-4.65.05-.3,0-.44.21-.68.25"></path><path class="cls-5" d="M284.99,350.41c.6,1.65.93,3.37,1,5.11.03.92.4,1.8.25,2.72"></path><path class="cls-5" d="M262.85,330.31c-1.54.96-2.67,2.25-3.29,3.97-.59,1.64-1.31,3.23-1.5,4.99-.03.28-.15.53.02.8.43.29.91-.14.99-.26.78-1.26,1.81-.62,2.76-.4.17.04.34.24.57.2"></path><path class="cls-5" d="M267.39,324.86c-2.02-.3-3.52.96-5.09,1.86-.93.53-1.62,1.47-1.95,2.57-.03.1,0,.23,0,.34"></path><path class="cls-5" d="M258.53,311.7c-.98-.91-2.01-1.74-2.88-2.8-1.08-1.31-2.74-1.83-4.39-2.19"></path><path class="cls-5" d="M288.4,349.5c.7,2.42.72,4.89.57,7.38"></path><path class="cls-5" d="M265.35,296.71c-.87.45-1.74.9-2.61,1.36-1.52.8-3.08.7-4.66.23"></path><path class="cls-5" d="M260.35,349.84c-.65-.06-1.04.37-1.35.81-.4.56-.91.59-1.49.56-1.41-.09-2.79.4-4.2.23"></path><path class="cls-5" d="M272.16,301.59c-2.27-.34-4.54.05-6.81,0"></path><path class="cls-5" d="M271.14,308.4c-2.19.27-4.41-.08-6.59.34"></path><path class="cls-5" d="M271.25,304.88c-.56.22-1.14.15-1.7.1-1.63-.14-3.26.33-4.88.01"></path><path class="cls-5" d="M268.98,353.36c.09,1.42.7,2.72,1.06,4.08.69,2.61.29,5.02-.83,7.39"></path><path class="cls-5" d="M254.45,325.55c-2.06-.72-4.22-.77-6.36-.91"></path><path class="cls-5" d="M268.3,358.92c-.74.21-1.12.86-1.1,1.47.06,1.81-.98,2.84-2.31,3.75"></path><path class="cls-5" d="M270.91,312.04c-1.85.19-3.71.09-5.56.11"></path><path class="cls-5" d="M284.99,362.55c.43,1.45-.29,2.87-.12,4.31.05.41-.07.85.12,1.25"></path><path class="cls-5" d="M256.72,329.63c-1.79-.51-3.54-1.22-5.45-1.14"></path><path class="cls-5" d="M281.81,363.58c.32.74-.06,1.44-.1,2.16-.05,1.09-.01,2.19-.01,3.29"></path><path class="cls-5" d="M269.78,329.29c-.31-.34-.71-.35-1.14-.35-1.25.02-2.5,0-3.75,0"></path><path class="cls-5" d="M267.62,348.48c-1.65-.18-3.26.18-4.88.34"></path><path class="cls-5" d="M252.86,321.69c-1.53-.63-3.14-.74-4.77-.68"></path><path class="cls-5" d="M268.19,352.11c-1.52-.08-3,.16-4.43.68"></path><path class="cls-5" d="M256.94,315.56c.28.19.4.48.45.8.24,1.43.86,2.64,2.05,3.52"></path><path class="cls-5" d="M252.63,317.83c-1.44-.15-2.88-.3-4.32-.45"></path><path class="cls-5" d="M261.94,299.89c-.99,1.08-2.16,1.12-3.4.55-.25-.12-.47-.04-.69-.1"></path><path class="cls-5" d="M277.84,365.73c0,1.18-.38,2.33-.23,3.52"></path><path class="cls-5" d="M251.72,313.74l-3.41-.34"></path><path class="cls-5" d="M270.46,314.87h-2.61"></path><path class="cls-5" d="M265.35,334.06c.72.53,1.61.18,2.38.45"></path><path class="cls-5" d="M260.35,329.06c-.36-.17-.7-.42-1.14-.34"></path><path class="cls-5" d="M278.52,343.26v1.14"></path></g></g><g id="K"><g><path class="cls-4" d="M208.13,323.12c.89-.2,1.81-.29,2.61-.79.99-.62,1.13-1.01.68-2.16-.36-.92-.84-1.79-1.11-2.73-.39-1.36-.38-2.78-.25-4.19.1-1.06.18-2.12.23-3.18.08-1.92.54-3.78.8-5.68.27-1.96.95-3.89.35-5.9-.57-1.91-2.88-3.48-4.66-3.18-.77.13-1.34.61-1.92,1.04-1.4,1.02-3.01,1.47-4.67,1.67-3.64.43-5.43,2.92-6.05,6.14-.39,2.04.03,4.02.06,6.02.02,1.14.36,2.27.41,3.41.13,2.67-.65,5.21-1.38,7.71-1.06,3.6-1.98,7.22-2.72,10.9-.56,2.79-.85,5.6-1.07,8.41-.13,1.69.19,3.41.37,5.11.12,1.17.24,2.35.39,3.51.29,2.23,1.03,4.35,1.72,6.46.68,2.08.97,4.23,1.33,6.37.26,1.53.5,1.81,2.05,1.81,1.19,0,2.24.54,3.27.97,1,.41,1.4,0,1.71-.74.3-.73.44-1.52.71-2.26.48-1.33.05-2.51-.58-3.63-.68-1.2-1.39-2.38-2.16-3.52-2.44-3.63-2.1-7.3.16-10.76,1.64-2.52,3.7-4.76,5.18-7.41"></path><path class="cls-4" d="M207.45,323.81c1.14,1.22,2.34,2.38,3.75,3.29.7.45,1.13,1.16,1.58,1.82,1.29,1.9,2.88,3.28,5.1,4.13,2.88,1.1,5.32,2.78,6.09,6.18.42,1.86,1.52,3.5,2.89,4.9,1.01,1.03,1.72,2.31,2.26,3.63,1.27,3.11,3.41,5.57,5.7,7.94,1.14,1.17,1.13,1.82-.24,2.71-1.22.79-1.86,1.99-2.47,3.2-.28.55-.57,1.08-.92,1.58-.77,1.12-1.75,1.3-2.6.32-.8-.92-1.47-1.94-2.17-2.94-3.49-4.95-6.68-10.11-10.47-14.85-.86-1.08-2.02-1.91-3.04-2.86-1.21-1.13-2.24-2.4-3.09-3.85-.57-.97-1.31-1.85-2.25-2.51-1.04-.73-1.91-1.65-2.73-2.61"></path><path class="cls-4" d="M208.13,296.33c-.69,1.87-1.14,3.8-1.36,5.79-.07.64.04,1.36.37,1.79,1.9,2.49,1.36,5.09.54,7.75-.24.77-.37,1.56-.36,2.38.03,2.57-.02,5.15.02,7.72.05,2.67-.66,5.21-1.41,7.71-.65,2.14-1.55,4.24-2.02,6.39-.58,2.64-.98,5.43.65,8.07,1.04,1.67,1.28,3.73,1.75,5.65.65,2.63,1.7,5.14,2.48,7.72.27.88.59,1.83.53,2.72-.08,1.19-1.52,2.02-3.13,2.04-1.67.02-3.33,0-5,0"></path><path class="cls-4" d="M211.77,327.44c3.95-.03,6.91-2.19,9.76-4.55,3.11-2.58,5.03-5.95,6.25-9.76.46-1.44,1.05-2.84,1.73-4.19.32-.64.74-1.2,1.43-1.65.92-.61,1.64-1.52,2.41-2.34,1.61-1.71,1.39-3.42-.56-4.65-1.14-.72-2.27-1.44-3.41-2.16-1.1-.69-1.77-.69-2.24.35-1.78,3.93-5.11,6.53-8,9.5-1.2,1.24-1.91,2.44-1.38,4.23.28.95-.15,1.96-.3,2.94-.26,1.71-1.15,3.07-2.28,4.31"></path><path class="cls-4" d="M207.22,328.8c.97,4.64,1.81,7.23,6.93,7.73,2.3.22,4.34,1.02,5.79,2.95"></path><path class="cls-4" d="M219.83,310.75c.9,2.29.49,4.59-.15,6.8-.74,2.57-2.27,4.67-4.74,5.89-.68.34-1.5.4-2.26.59"></path><path class="cls-4" d="M202.45,317.45c-.05,1.5-.54,2.94-.74,4.42-.17,1.21-.47,2.45-.56,3.65-.18,2.47-.55,4.91-.74,7.37"></path><path class="cls-4" d="M210.52,312.91c.63,1.45,1.54,2.59,3.18,2.95,1.16.25,2.29.17,3.41-.23"></path><path class="cls-4" d="M224.71,308.14c-.34,1.59-.69,3.18-1.02,4.77-.14.68-.23,1.36-.34,2.04"></path><path class="cls-4" d="M233.45,302.12c-1.33,1.39-2.21,3.07-3.09,4.76-.14.27.14.39.02.58"></path><path class="cls-4" d="M211.31,330.62c.98,1.68,2.8,2.44,4.88,2.04"></path><path class="cls-4" d="M200.64,345.15c.53,1.29,1.06,2.57,1.59,3.86"></path><path class="cls-4" d="M198.37,302.69c-.07,1.2-.84,2.21-.91,3.41"></path><path class="cls-4" d="M201.32,352.19c.3,1.3,1.3,2.22,1.82,3.41"></path></g></g><g id="A"><g><path class="cls-5" d="M136.87,326.53c.83-2.8,1.57-5.62,2.07-8.51.54-3.09.91-6.18,1.16-9.31.21-2.64.02-5.18-.98-7.6-1.35-3.26-3.79-5.17-7.36-5.71-4.04-.61-6.81,1.32-9.21,4.22-3.75,4.54-6.17,9.84-8.6,15.11-1.67,3.64-3.2,7.36-4.38,11.22-1.37,4.5-2.58,9.04-3.63,13.63-.67,2.94-1.31,5.9-1.73,8.87-.3,2.11-.48,4.27-.04,6.48.25,1.25.27,2.56.63,3.85,1.09,3.91,3.95,5.61,7.64,6.08,2.89.37,5.68-.14,7.94-2.23,1.66-1.53,2.92-3.35,3.74-5.45.73-1.86,1.2-3.79,1.55-5.78.23-1.34.97-2.64,1.66-3.86,1.81-3.22,3.04-6.69,4.57-10.03.96-2.1,1.68-4.35,2.44-6.56.09-.27.3-.57.05-.9-.72.02-1.43.45-2.2.56-1.78.24-3.1-.68-3.94-2.06-1.34-2.19-3.17-3.86-5.14-5.44-.78-.63-1.59-1.03-2.62-.91-.41.05-.85.09-1.25-.1"></path><path class="cls-5" d="M159.01,355.25c.34,2.64,1.48,4.85,3.4,6.71,2.65,2.57,5.93,3.05,9.31,2.66,2.57-.3,4.13-2.04,4.67-4.48.19-.87.77-1.59.92-2.5.37-2.31.33-4.61.01-6.93-.35-2.54-.95-5.02-1.59-7.5-.75-2.93-1.67-5.81-2.39-8.74-.56-2.29-1.23-4.54-1.76-6.82-.31-1.34-.33-2.79-.64-4.18-1.08-4.84-3.03-9.32-5.45-13.63-2.45-4.36-5.4-8.31-8.98-11.8-1.59-1.55-3.52-2.51-5.68-2.54-1.78-.03-3.52.62-5,1.75-2.47,1.89-3.7,4.4-3.99,7.49-.51,5.45.98,10.57,2.54,15.66.66,2.16,1.57,4.24,2.36,6.36"></path><path class="cls-5" d="M152.31,324.37c1.06-1.08,2.44-1.46,3.86-1.68.86-.13,1.47-.34,1.84-1.26.83-2.04,2.72-2.71,4.63-3.3,1.15-.35,2.22-.87,3.21-1.58-.48-2.92-1.61-5.58-3.11-8.06-1.4-2.32-3.01-4.51-4.74-6.6-1.35-1.63-2.97-2.95-4.91-3.71-3.25-1.28-6.35.05-7.84,3.14-1.39,2.87-1.52,5.93-1.31,8.97.28,4,1.2,7.88,2.8,11.58"></path><path class="cls-5" d="M154.01,338.56c-.4.93.32,1.66.62,2.36,1.07,2.48,1.95,5.14,3.63,7.25,2.59,3.26,3.88,7.22,6.19,10.6,1.23,1.79,2.54,3.43,5,3.4,2.96-.04,5.27-2.41,5.35-5.34.13-4.73-.64-9.35-1.52-13.96-.54-2.86-.92-5.76-1.9-8.52-.8-2.26-.77-2.27-3.19-2.27-1.87,0-3.7-.1-5.46-.89-1.22-.54-2.28-1.2-3.06-2.29"></path><path class="cls-5" d="M122.33,327.89c-.56,2.03-2.54,3.06-5.45,1.47-.93-.51-1.86-.75-2.96-.59-1.22.18-1.98.79-2.5,1.85-1.55,3.14-2.45,6.51-3.26,9.88-.7,2.93-1.38,5.86-1.87,8.84-.43,2.68-.35,5.23.54,7.85,1.05,3.09,3.82,4.18,6.86,3.74,2.36-.35,4-1.87,5.42-3.55,1.99-2.35,2.81-5.41,4.57-7.92.07-2.12,1.18-3.91,1.96-5.78,1-2.37,2.24-4.63,3.37-6.94.2-.41.38-.83.57-1.25"></path><path class="cls-5" d="M136.75,319.61c.7-2.38,1.17-4.8,1.51-7.26.3-2.2.29-4.4.17-6.59-.18-3.16-1.32-5.89-4.18-7.6-2.67-1.59-6.5-1.6-9.42,1.36-2.73,2.77-4.65,6.08-6.36,9.53-1.12,2.27-2.02,4.61-2.27,7.15"></path><path class="cls-5" d="M125.51,351.62c-1.12,1-1.55,2.45-2.37,3.64-1.33,1.94-2.51,4.02-4.45,5.43-3.42,2.47-8.04,2.52-11.46-.1-1.5-1.15-1.94-2.88-2.49-4.54-.07-.22-.02-.5-.35-.57"></path><path class="cls-5" d="M148.56,332.89c.63.39.65,1.12.9,1.71,1.21,2.9,2.88,5.56,4.23,8.39,1.81,3.81,3.22,7.82,5.16,11.55,1.34,2.57,2.87,5.15,5.17,7.06,3.07,2.55,8.3,3.55,11.48-.88.18-.25.28-.74.78-.7"></path><path class="cls-5" d="M161.05,323.24c.63.18,1.34.33,1.45-.57.08-.67-.44-.98-1.1-1.15-1.85-.48-2.94.77-3.95,1.86-1.52,1.63-2.83,3.46-4.23,5.19-1.2,1.48-2.78,2.07-4.65,2.05-2.36-.02-4.71-.05-7.04-.45-.39-.07-.76,0-1.15.31-1.45,1.14-2.46,1.05-4.1.06-.44-.26-.82-1.02-1.56-.61"></path><path class="cls-5" d="M159.69,323.24c-.36.92-1.36,1.18-1.97,1.9-1.12,1.33-2.22,2.68-3.11,4.14-1.33,2.18-4.06,3.07-6.86,2.52-1.31-.26-2.72.04-4.08-.07-1.22-.1-2.48-.2-3.52-1"></path><path class="cls-5" d="M115.52,329.03c.87,2.15,2.85,2.81,4.77,3.51,2.56.93,5.28.97,7.95,1.26.49.05.98.15,1.48.22"></path><path class="cls-5" d="M131.3,323.92c-1.05-.23-2.17-.29-3.16-.05-.96.23-1.58.06-2.3-.5-.9-.7-1.86-1.34-2.83-1.93-1.15-.7-2.43-.89-3.74-.68-.84.14-1.39.92-1.25,1.57.15.72,1.03,1.29,1.81.99.74-.28,1.45-.13,2.17-.2"></path><path class="cls-5" d="M130.05,335.5c.08,1.45-.68,2.67-1.15,3.97-1.12,3.11-2.5,6.08-4.3,8.86-.21.33-.3.76-.8.79"></path><path class="cls-5" d="M156.17,327.55c.41,2.06-.44,3.77-1.61,5.32-.91,1.21-1.64,2.4-1.23,3.99.21.81.79,1.39,1.21,2.07,1.65,2.68,3.46,5.3,4.34,8.38.2.71.84,1.32.59,2.15"></path><path class="cls-5" d="M164.12,331.98c-.7,1.07-1.88,1.56-2.97,1.88-2.51.74-5.01,1.7-7.71,1.52"></path><path class="cls-5" d="M131.41,324.15c.58.65,1.22.33,1.55-.14.29-.42.18-1.12-.2-1.54-.35-.39-.81-.49-1.35-.14-1.13.72-2.42.32-3.62.32-.87,0-1.74-.34-2.61-.53"></path><path class="cls-5" d="M156.4,326.98c1.49.8,3.05,1.35,4.77,1.37.19,0,.43-.11.56.11.41.67.94.9,1.46.21.42-.56.4-1.18-.32-1.58"></path><path class="cls-5" d="M115.18,316.43c2.52-.14,4.8.77,7.03,1.73,1.02.44,1.57,1.43,1.65,2.63,2.02.1,3.92.61,5.86.85"></path><path class="cls-5" d="M127.89,325.51c.64.87,1.27,1.76,1.94,2.61.93,1.18,1.66,1.38,3.05.67,2.14-1.09,4.15-.79,6.14.36"></path><path class="cls-5" d="M136.75,320.74c-.63-.93-1.72-.84-2.62-1.11-1.87-.57-3.59-.26-4.99,1.22-.15.15-.09.3-.11.46"></path><path class="cls-5" d="M129.82,335.16c.27-1.23.11-2.4-.69-3.4-1.01-1.26-1.89-2.6-2.46-4.11-.26-.69-.69-.34-1.05-.44"></path><path class="cls-5" d="M153.9,322.44c-1.31-1.77-2.85-2.07-5.01-.82-.5.29-.95.66-1.46.93"></path><path class="cls-5" d="M124.6,325.17c-1.3.86-2.81.88-4.19.61-.9-.18-1.31-.03-1.72.64-.46.75.19,1.06.57,1.48.41-.18.75-.45,1.02-.79"></path><path class="cls-5" d="M136.3,331.52c-.64.67-.7,1.62-1.15,2.38-.79,1.33-1.33,2.88-2.94,3.53"></path><path class="cls-5" d="M125.85,326.19c-1.95,1.1-4.04.85-6.13.68"></path><path class="cls-5" d="M142.2,332.32c.31,0,.32.29.45.46,1.07,1.4,2.38,1.4,3.53,0,.08-.1.22-.15.34-.23"></path><path class="cls-5" d="M132.89,327.32c.87-.23,1.74-.61,2.61-.65,1.55-.06,3.07.2,4.43,1.09.87.57.74,1.47.9,2.28"></path><path class="cls-5" d="M157.76,326.08c1.21.64,2.49,1.06,3.86,1.12.43.02.67.2.91.47"></path><path class="cls-5" d="M150.38,326.87c-.94.19-1.91.21-2.84.09-1.63-.21-2.99.33-4.06,1.42-.74.76-1.53,1.14-2.53,1.22"></path><path class="cls-5" d="M156.51,323.69c-1.24.18-2.44.45-3.52,1.13-.27.17-.55.31-.57.68"></path><path class="cls-5" d="M150.38,328.46c-1.06.08-2.12.23-3.18.21-1.12-.03-1.93.51-2.73,1.16"></path><path class="cls-5" d="M152.2,324.03c-.76-.17-1.06.42-1.22.92-.21.65.43.86.88,1.13"></path><path class="cls-5" d="M135.62,328.35c.77.63,1.67.98,2.61,1.25"></path><path class="cls-5" d="M123.47,323.69c-.36.38-.37.91-.57,1.36"></path></g></g><g id="T"><g><path class="cls-5" d="M50.28,293.85c.31.37.78.47,1.19.61,1.33.47,2.68.85,4.09,1.05,1.34.19,2.67.29,4.01.22,1.37-.07,2.74-.24,4.1-.49.65-.12,1.33-.18,1.93-.38.99-.33,2.01-.4,3.01-.58,1.72-.31,3.45-.58,5.19-.83,1.88-.27,3.76-.46,5.66-.4,2.98.1,5.94.42,8.74,1.55,1.07.43,2.11.93,3,1.69.44.38.83.78.89,1.39.09,1.04-.45,1.54-1.35,1.85-.55.19-1.14.28-1.73.26-1.27-.04-2.54.02-3.8.1-1.29.09-2.59.21-3.8.75-1.33.59-2.38,1.57-3.24,2.71-1.3,1.72-2.71,3.33-4.15,4.93-1.1,1.23-2.14,2.5-3.04,3.88-.15.23-.26.48-.38.72-.03.06-.09.13-.08.17.27.79-.04,1.55-.11,2.32-.06.63,0,1.3-.4,1.86-.05.07.02.22.03.33.1,1,.52,1.92.81,2.87.45,1.48.85,2.99,1.52,4.39.68,1.42,1.32,2.85,1.81,4.35.73,2.24,1.29,4.52,1.7,6.84.28,1.55.58,3.1.91,4.65.44,2.11.9,4.22,1.36,6.33.54,2.43,1.07,4.86,1.56,7.3.4,1.98.73,3.97,1.11,5.95.34,1.79.7,3.58,1.05,5.36.09.44.03.58-.42.71-1.1.32-2.21.59-3.33.81-.8.15-1.6.36-2.41.5-.87.14-1.74.24-2.62.34-.76.09-1.52.14-2.28.22-.07,0-.14.03-.21.03-2.04.03-4.08.16-6.12.08-1.76-.07-3.52-.1-5.28-.28-1.08-.11-2.17-.16-3.25-.26-1.32-.13-2.64-.35-3.97-.4-1.04-.04-2.07-.18-3.13-.05-.8.1-1.63.13-2.45.16-.31.01-.59-.07-.89-.11"></path><path class="cls-5" d="M65.86,294.7c-.1-.52-.21-1.04-.29-1.56-.05-.32-.18-.44-.51-.43-2.2.07-4.39-.1-6.59-.19-1.17-.05-2.34-.12-3.5-.19-1.13-.06-2.27-.13-3.37-.39-.38-.09-.53.04-.64.35-.15.44-.38.85-.58,1.27-.14.29-.4.34-.64.47-.25.14-.47.17-.72.04-.19-.1-.4-.07-.59-.04-.41.08-.82.07-1.23.08-1.62.04-3.24.05-4.85.14-.91.05-1.83.07-2.74.16-1.55.15-3.08.43-4.61.78-1.87.44-3.65,1.09-5.31,2.04-.82.47-1.63.97-2.24,1.72-.85,1.04-.22,1.92.72,2.18.55.15,1.15.22,1.73.21,1.66-.01,3.32.05,4.98.1,1.74.05,3.45.28,5.02,1.1,1.08.56,2.03,1.33,2.95,2.11,1.54,1.3,2.92,2.77,4.18,4.35.27.34.47.77.97.84"></path><path class="cls-5" d="M65.48,316.31c-.08.42.04.83.11,1.22.11.63.13,1.27.22,1.91.07.5.07,1.02.07,1.52,0,.73-.08,1.47-.18,2.2-.2,1.36-.57,2.67-.99,3.96-.39,1.2-.85,2.38-1.35,3.55-.78,1.84-1.57,3.68-2.53,5.45-.82,1.51-1.67,3.01-2.87,4.27"></path><path class="cls-5" d="M65.69,294.95c.16.64-.1,1.23-.27,1.81-.48,1.62-1.27,3.1-2.3,4.44-1.45,1.87-3.27,3.35-5.1,4.82-2,1.6-4.26,2.7-6.63,3.58-.74.28-1.46.59-2.15.97-.2.11-.41.19-.63.21"></path><path class="cls-5" d="M59.1,316.53c.06.28-.1.42-.29.6-1.64,1.51-3.32,2.98-5.16,4.26-1.09.76-2.21,1.47-3.42,2.03-.24.11-.47.27-.76.21-.19-.04-.27.13-.37.22-.78.65-1.54,1.32-2.3,1.98.05.18.11.3.18.42.34.66.36,1.37.17,2.06-.37,1.4-.51,2.83-.41,4.27.09,1.37.14,2.73.11,4.1-.04,1.63-.1,3.27-.22,4.9-.1,1.39-.23,2.79-.33,4.18-.08,1.09-.22,2.17-.33,3.25,0,.03,0,.06,0,.08.05.98-.11,1.94-.13,2.91-.02.96-.04,1.91-.08,2.87-.07,1.63-.08,3.26-.05,4.9.04,2.35.01,4.7.01,7.05,0,.19-.02.38.08.55"></path><path class="cls-5" d="M60.45,311.84c-.37-.03-.73-.08-1.1-.08-1.59-.02-3.18-.06-4.77-.03-.79.02-1.58.04-2.36.08-1.14.06-2.28.19-3.42.29"></path><path class="cls-5" d="M60.24,315.51c.25-.5.14-1.05.18-1.56.05-.67.18-1.34.09-2.03-.09-.66.24-.9.91-.89,1.13.02,2.25.17,3.38.25.38.03.65.17.8.52-.28.31-.19.73-.23,1.09-.09.95-.34,1.87-.36,2.83,0,.25-.35.54-.58.45-.35-.14-.73-.12-1.06-.13-.67,0-1.32-.15-1.98-.2-.33-.03-.67-.05-.97-.23-.2-.11-.41-.15-.63-.15-1.59-.01-3.18,0-4.77.09-1.04.06-2.09.11-3.12.22-.93.1-1.85.17-2.79.16-.06,0-.11.03-.17.04"></path><path class="cls-5" d="M65.6,306.39c-.68.04-1.3.33-1.94.52-2.19.67-4.42,1.16-6.63,1.71-.18.05-.35.16-.55.13"></path><path class="cls-5" d="M49.31,294.23c-.02.38-.3.62-.51.88-1.19,1.42-1.93,3.07-2.3,4.86-.23,1.09-.22,2.21-.11,3.33.17,1.87.82,3.6,1.5,5.32.15.39.4.74.17,1.19-.06.13.05.27.16.38.54.53.58,1.27.51,1.89-.09.81-.03,1.61-.08,2.41-.03.47,0,.95.21,1.39.09.19-.08.33-.05.51.14.88.26,1.77.39,2.66.18,1.2.36,2.41.29,3.63-.02.31-.16.61-.12.93"></path><path class="cls-5" d="M60.41,349.03c-.56.33-1.04.78-1.64,1.06-1,.46-2.04.6-3.13.51-.79-.07-1.58-.12-2.36-.17"></path><path class="cls-5" d="M60.28,349.03c-.04-.17-.12-.3-.25-.42-.51-.49-1.06-.92-1.65-1.31-.42-.28-.89-.39-1.39-.38-1.16.02-2.32-.1-3.46-.29"></path><path class="cls-5" d="M67.84,316.74c-.11.57.11,1.11.22,1.64.22,1.09.45,2.18.55,3.29.2,2.19.08,4.37-.23,6.54-.06.4-.14.8-.26,1.18-.06.19-.07.37-.07.55"></path><path class="cls-5" d="M62.44,316.1c-.22.93-.66,1.78-1.03,2.65-.48,1.16-.99,2.32-1.59,3.43-.06.12-.11.25-.26.29"></path><path class="cls-5" d="M69.19,306.1c-.8,1.42-1.61,2.84-2.4,4.27-.19.35-.42.69-.54,1.06-.11.35-.3.42-.61.38"></path><path class="cls-5" d="M53.02,351.48c-.01-.33,0-.66.15-.97.02-.04.07-.09.06-.13-.24-1.02.08-2.03.05-3.04,0-.16.04-.34.11-.51.17-.4-.06-.77-.5-.84-.96-.16-1.94-.23-2.91-.25-.08,0-.17.01-.25,0-.21-.04-.49-.12-.57.09-.09.25-.35.46-.24.8.14.42-.03.85-.06,1.26-.05.65,0,1.3-.12,1.94-.06.35-.11.68.01,1.02.08.22.22.36.46.33,1.07-.11,2.14.02,3.21,0,.18,0,.37-.03.55-.04"></path><path class="cls-5" d="M70.46,313.02c-.87-.22-1.7-.55-2.57-.77-.58-.14-1.21-.14-1.73-.5"></path><path class="cls-5" d="M46.1,350.22c.83-.02,1.66.01,2.49.13"></path><path class="cls-5" d="M46.39,346.12c.82.11,1.63.23,2.45.34"></path><path class="cls-5" d="M69.95,317.29c-.62-.38-1.31-.5-2.02-.61-.51-.08-1-.3-1.52-.36-.31-.04-.61-.23-.91-.04-.17-.12-.33-.23-.49-.34"></path></g></g></g><circle class="cls-1" cx="69.01" cy="232.76" r="7.16"></circle></g></svg> 