<?xml version="1.0" encoding="UTF-8"?> <svg xmlns="http://www.w3.org/2000/svg" width="124" height="33" viewBox="0 0 124 33" fill="none"><path d="M50.2592 25.2066L56.6328 25.2138C56.9345 26.9435 58.1472 27.9156 60.3323 27.9185C62.2142 27.9213 63.3381 27.1336 63.3396 25.98C63.341 24.6448 62.1269 24.3103 58.8808 23.4869C55.4831 22.6335 50.8098 21.6257 50.8155 16.6495C50.8212 12.5224 54.738 10.2223 59.8675 10.228C65.21 10.2352 68.5448 12.7869 69.1783 16.6724L62.9563 16.6652C62.7461 15.3901 61.532 14.661 59.8017 14.6596C58.1329 14.6581 57.0389 15.2628 57.0375 16.2335C57.0361 17.5987 59.0996 17.8746 61.6178 18.515C65.2587 19.4299 69.6288 20.4963 69.6231 25.351C69.6173 30.1142 65.6376 32.5072 60.3265 32.5001C54.3777 32.4929 50.5867 29.6968 50.2578 25.2066H50.2592Z" fill="black"></path><path d="M83.8845 28.3716L76.9032 28.363L75.7749 32.1542L69.4014 32.147L77.0148 10.614L83.813 10.6226L91.375 32.1742L85.0014 32.167L83.8831 28.373L83.8845 28.3716ZM82.4946 23.667L80.4082 16.5651L78.3061 23.6628L82.4946 23.6685V23.667Z" fill="black"></path><path d="M108.87 26.9764L108.864 32.1956L92.8379 32.1756L92.8636 10.6326L98.9941 10.6397L98.9741 26.9635L108.868 26.9749L108.87 26.9764Z" fill="black"></path><path d="M123.155 15.7661L116.934 15.759L116.913 32.2043L110.783 32.1971L110.803 15.7518L104.581 15.7447L104.587 10.647L123.163 10.6698L123.157 15.7675L123.155 15.7661Z" fill="black"></path><path d="M21.5546 24.5604C29.2395 24.5604 35.4929 18.3105 35.4929 10.6268C35.4929 5.04304 30.9484 0.5 25.3627 0.5C19.7771 0.5 15.2325 5.04304 15.2325 10.6268C15.2325 14.112 18.0682 16.9467 21.5546 16.9467C25.041 16.9467 27.8767 14.112 27.8767 10.6268H27.8724C27.8724 9.24157 26.7498 8.11939 25.3642 8.11939C23.9785 8.11939 22.8559 9.24157 22.8559 10.6268H22.8488C22.8488 11.3401 22.2682 11.9219 21.5546 11.9219C20.841 11.9219 20.2604 11.3415 20.2604 10.6268C20.2604 7.81347 22.5499 5.52479 25.3642 5.52479C28.1784 5.52479 30.4679 7.81347 30.4679 10.6268C30.4679 15.5386 26.471 19.5356 21.556 19.5356C16.6411 19.5356 12.6456 15.5386 12.6456 10.6268H7.61911C7.61911 18.3091 13.8711 24.5604 21.5575 24.5604H21.5546ZM38.0827 10.6268C38.0827 19.7372 30.6681 27.1493 21.5546 27.1493C12.4411 27.1493 5.0265 19.7372 5.0265 10.6268H0C0 22.5076 9.66975 32.1741 21.5546 32.1741C33.4394 32.1741 43.1092 22.5076 43.1092 10.6268H38.0827Z" fill="black"></path></svg> 